<svg id="Calque_1" data-name="Calque 1" xmlns="http://www.w3.org/2000/svg" viewBox="0 0 553.08 141.25"><defs><style>.cls-1,.cls-6{fill:#000091;}.cls-2,.cls-3,.cls-4{fill:#fff;stroke-width:4.59px;}.cls-2{stroke:#6f7072;}.cls-2,.cls-3,.cls-4,.cls-5,.cls-6{stroke-miterlimit:10;}.cls-3,.cls-5{stroke:#e1000f;}.cls-4,.cls-6{stroke:#000091;}.cls-5,.cls-8{fill:#e1000f;}.cls-5,.cls-6{stroke-width:1.84px;}.cls-7{fill:#6f7072;}.cls-9{fill:#706f6f;}</style></defs><path class="cls-1" d="M57.66,27.17a2.66,2.66,0,0,1,1.32.35L94.91,48.16a2.65,2.65,0,0,1,1.33,2.3l.09,41.43A2.67,2.67,0,0,1,95,94.2L59.17,115a2.63,2.63,0,0,1-1.33.36,2.67,2.67,0,0,1-1.33-.35L20.58,94.36a2.65,2.65,0,0,1-1.33-2.3l-.09-41.43a2.67,2.67,0,0,1,1.32-2.31L56.32,27.53a2.64,2.64,0,0,1,1.34-.36m0-5.25a7.94,7.94,0,0,0-4,1.07L17.85,43.79a7.88,7.88,0,0,0-3.93,6.85L14,92.07a7.88,7.88,0,0,0,4,6.84L53.9,119.55a7.89,7.89,0,0,0,7.9,0l35.84-20.8a7.9,7.9,0,0,0,3.94-6.85l-.09-41.43a7.91,7.91,0,0,0-4-6.84L61.59,23a7.9,7.9,0,0,0-3.93-1Z"/><circle class="cls-2" cx="99.13" cy="70.62" r="7.27"/><circle class="cls-3" cx="37.8" cy="35.71" r="7.27"/><circle class="cls-4" cx="34.78" cy="105.99" r="7.27"/><path class="cls-5" d="M71.73,67.82l-26.81.42A1.9,1.9,0,0,1,43,66.38L42.81,58a14.3,14.3,0,0,1,14-14.51l2,0a14.29,14.29,0,0,1,14.5,14l.19,8.4A1.89,1.89,0,0,1,71.73,67.82Zm-25-3.39,23-.37-.16-6.5A10.51,10.51,0,0,0,59,47.23l-2,0A10.52,10.52,0,0,0,46.59,57.93Z"/><path class="cls-6" d="M72.12,92.3l-26.81.42a1.88,1.88,0,0,1-1.92-1.86L43,66.38a1.88,1.88,0,0,1,1.86-1.92L71.67,64a1.89,1.89,0,0,1,1.92,1.87L74,90.38A1.9,1.9,0,0,1,72.12,92.3Zm-25-3.39,23-.36-.33-20.71-23,.37Z"/><path class="cls-5" d="M58.57,83.18a1.88,1.88,0,0,1-1.92-1.86l-.1-5.83a1.89,1.89,0,1,1,3.78-.06l.1,5.83A1.89,1.89,0,0,1,58.57,83.18Z"/><path class="cls-7" d="M128.52,85.77H120.8V56.1h12.28q5,0,7.65,2.6c1.78,1.73,2.66,4.17,2.66,7.32s-.88,5.59-2.66,7.32-4.32,2.6-7.65,2.6h-4.56Zm0-16h2.55c2.84,0,4.25-1.23,4.25-3.7s-1.41-3.7-4.25-3.7h-2.55Z"/><path class="cls-7" d="M170.19,85.77h-9.6l-7.36-11.41V85.77h-7.71V56.1h12a11.94,11.94,0,0,1,4.33.73,8.17,8.17,0,0,1,4.86,4.9,10.28,10.28,0,0,1,.61,3.54,8.69,8.69,0,0,1-1.64,5.49,8.1,8.1,0,0,1-4.82,2.85Zm-17-16.41h1.46a5.63,5.63,0,0,0,3.5-.94,3.63,3.63,0,0,0,0-5.43,5.63,5.63,0,0,0-3.5-1h-1.46Z"/><path class="cls-7" d="M169.56,70.94a15.53,15.53,0,0,1,1.22-6.16,15.23,15.23,0,0,1,8.56-8.3,18.86,18.86,0,0,1,13.24,0,15.64,15.64,0,0,1,5.22,3.32,15.31,15.31,0,0,1,3.4,5,16.16,16.16,0,0,1,0,12.32,15.31,15.31,0,0,1-3.4,5,15.8,15.8,0,0,1-5.22,3.32,18.86,18.86,0,0,1-13.24,0,15.47,15.47,0,0,1-5.17-3.32,15.29,15.29,0,0,1-3.39-5A15.57,15.57,0,0,1,169.56,70.94Zm8.07,0a7.79,7.79,0,0,0,.67,3.26,8.1,8.1,0,0,0,1.81,2.6,8,8,0,0,0,2.65,1.71,8.75,8.75,0,0,0,6.42,0,8.14,8.14,0,0,0,2.67-1.71,8.18,8.18,0,0,0,1.83-9.13,8.07,8.07,0,0,0-1.83-2.6,8.47,8.47,0,0,0-2.67-1.71,8.75,8.75,0,0,0-6.42,0,8.16,8.16,0,0,0-4.46,4.31A7.87,7.87,0,0,0,177.63,70.94Z"/><path class="cls-1" d="M227.13,63.7a9.79,9.79,0,0,0-2.51-1.52,6.67,6.67,0,0,0-2.44-.49,4,4,0,0,0-2.44.71,2.21,2.21,0,0,0-1,1.85,1.87,1.87,0,0,0,.47,1.3,4.23,4.23,0,0,0,1.24.88,10.24,10.24,0,0,0,1.73.65c.65.19,1.28.38,1.91.59A11.87,11.87,0,0,1,229.67,71a8.27,8.27,0,0,1,1.75,5.49,10.7,10.7,0,0,1-.76,4.13,8.71,8.71,0,0,1-2.25,3.17,10.2,10.2,0,0,1-3.62,2,15,15,0,0,1-4.86.73,17.87,17.87,0,0,1-10.43-3.34L212.81,77a13.57,13.57,0,0,0,3.42,2.28,8.24,8.24,0,0,0,3.35.75,4,4,0,0,0,2.81-.87,2.61,2.61,0,0,0,.93-2,2.66,2.66,0,0,0-.24-1.17,2.53,2.53,0,0,0-.79-.9,6.08,6.08,0,0,0-1.43-.77c-.59-.23-1.31-.5-2.15-.79-1-.31-2-.66-2.93-1a9.2,9.2,0,0,1-2.56-1.51,7.23,7.23,0,0,1-1.81-2.38,8.41,8.41,0,0,1-.69-3.64,10.67,10.67,0,0,1,.73-4A9,9,0,0,1,213.5,58a9.23,9.23,0,0,1,3.23-2,12.22,12.22,0,0,1,4.27-.7,18.55,18.55,0,0,1,4.6.61,19.86,19.86,0,0,1,4.6,1.79Z"/><path class="cls-1" d="M251.93,80.62h-11l-1.77,5.15h-8.23l11.3-29.67h8.42l11.29,29.67H253.7Zm-2.05-5.86-3.46-9.88L243,74.76Z"/><path class="cls-1" d="M263.34,85.77V56.1h7.71L285.3,74.24V56.1H293V85.77H285.3L271.05,67.63V85.77Z"/><path class="cls-1" d="M308.48,62.63V85.77h-7.72V62.63h-6.33V56.1h20.38v6.53Z"/><path class="cls-1" d="M333.15,62.63H324v5h8.66v6.54H324v5.11h9.17v6.53H316.27V56.1h16.88Zm-2.43-5.49-8.61,4.16L318.83,58,328,53.14Z"/><path class="cls-8" d="M363.61,66A8.23,8.23,0,0,0,357,62.75a8.1,8.1,0,0,0-3.21.63,7.89,7.89,0,0,0-2.54,1.71,8.25,8.25,0,0,0-1.67,2.58A8.44,8.44,0,0,0,349,70.9a8.54,8.54,0,0,0,.61,3.27,8,8,0,0,0,1.69,2.59,7.69,7.69,0,0,0,2.54,1.73,7.84,7.84,0,0,0,3.15.63A8.91,8.91,0,0,0,363.61,76v9.13l-.79.27a23.26,23.26,0,0,1-3.3.93,16.7,16.7,0,0,1-3,.29,15.43,15.43,0,0,1-10.84-4.43,16.36,16.36,0,0,1-3.45-5,16,16,0,0,1,0-12.6,15.49,15.49,0,0,1,8.4-8.14,15.42,15.42,0,0,1,5.95-1.16,16.19,16.19,0,0,1,3.48.37,21.67,21.67,0,0,1,3.6,1.16Z"/><path class="cls-8" d="M365.62,70.94a15.25,15.25,0,0,1,9.78-14.46,18.86,18.86,0,0,1,13.24,0,15.49,15.49,0,0,1,0,28.92,18.86,18.86,0,0,1-13.24,0,15.34,15.34,0,0,1-9.78-14.46Zm8.06,0a8,8,0,0,0,.67,3.26,8.26,8.26,0,0,0,1.81,2.6,8,8,0,0,0,2.66,1.71,8.72,8.72,0,0,0,6.41,0,8.21,8.21,0,0,0,4.51-4.31,7.79,7.79,0,0,0,.67-3.26,7.87,7.87,0,0,0-.67-3.27,8.38,8.38,0,0,0-1.83-2.6A8.53,8.53,0,0,0,382,62.75a8.64,8.64,0,0,0-3.21.61,8.32,8.32,0,0,0-2.66,1.71,8.5,8.5,0,0,0-1.81,2.6A8,8,0,0,0,373.68,70.94Z"/><path class="cls-8" d="M401.39,85.77V56.1h7.71l14.25,18.14V56.1H431V85.77h-7.67L409.1,67.63V85.77Z"/><path class="cls-8" d="M435.27,85.77V56.1H443l14.24,18.14V56.1h7.67V85.77h-7.67L443,67.63V85.77Z"/><path class="cls-8" d="M486,62.63h-9.17v5h8.66v6.54h-8.66v5.11H486v6.53H469.15V56.1H486Z"/><path class="cls-8" d="M511,66a8.24,8.24,0,0,0-6.61-3.27,8.06,8.06,0,0,0-3.21.63,7.79,7.79,0,0,0-2.54,1.71A7.92,7.92,0,0,0,497,67.67a8.44,8.44,0,0,0-.61,3.23,8.54,8.54,0,0,0,.61,3.27,7.85,7.85,0,0,0,1.69,2.59,7.69,7.69,0,0,0,2.54,1.73,7.84,7.84,0,0,0,3.15.63A8.93,8.93,0,0,0,511,76v9.13l-.79.27a23,23,0,0,1-3.31.93,16.53,16.53,0,0,1-3,.29A15.37,15.37,0,0,1,498,85.44a15.19,15.19,0,0,1-5-3.27,16.16,16.16,0,0,1-3.44-5,16,16,0,0,1,0-12.6,15.41,15.41,0,0,1,8.4-8.14,15.41,15.41,0,0,1,5.94-1.16,16.29,16.29,0,0,1,3.49.37,21.67,21.67,0,0,1,3.6,1.16Z"/><path class="cls-8" d="M526.73,62.63V85.77H519V62.63h-6.34V56.1h20.38v6.53Z"/><path class="cls-9" d="M196.51,96.6v8.74a4.75,4.75,0,0,0,.61,2.73,3.27,3.27,0,0,0,5.14,0,4.69,4.69,0,0,0,.61-2.73V96.6h2.2V106a5.24,5.24,0,0,1-1.43,3.78,5.32,5.32,0,0,1-3.95,1.65,5.26,5.26,0,0,1-3.94-1.65,5.2,5.2,0,0,1-1.43-3.78V96.6Z"/><path class="cls-9" d="M207.31,102h2.12v.85a3.46,3.46,0,0,1,2.51-1.1,3.17,3.17,0,0,1,2.49,1,4.15,4.15,0,0,1,.77,2.8v5.61h-2.13V106a3.38,3.38,0,0,0-.37-1.87,1.53,1.53,0,0,0-1.34-.53,1.63,1.63,0,0,0-1.49.7,4.77,4.77,0,0,0-.44,2.4v4.41h-2.12Z"/><path class="cls-9" d="M227.21,103.52l-1.75.93q-.42-.84-1-.84a.7.7,0,0,0-.5.2.64.64,0,0,0-.21.49c0,.35.41.7,1.22,1a7.32,7.32,0,0,1,2.27,1.34,2.25,2.25,0,0,1,.58,1.64,2.87,2.87,0,0,1-1,2.22,3.51,3.51,0,0,1-5.55-1.41l1.8-.83a3.27,3.27,0,0,0,.58.83,1.28,1.28,0,0,0,.92.36c.71,0,1.07-.32,1.07-1,0-.37-.28-.72-.83-1.05l-.64-.31-.65-.31a4,4,0,0,1-1.29-.9,2.23,2.23,0,0,1-.48-1.48,2.62,2.62,0,0,1,.81-2,2.89,2.89,0,0,1,2-.78A2.76,2.76,0,0,1,227.21,103.52Z"/><path class="cls-9" d="M237.08,107h-6.56a2.74,2.74,0,0,0,.73,1.79,2.23,2.23,0,0,0,1.66.66,2.16,2.16,0,0,0,1.31-.37,5.28,5.28,0,0,0,1.16-1.4l1.78,1a6.84,6.84,0,0,1-.87,1.21,5.08,5.08,0,0,1-1,.83,4.16,4.16,0,0,1-1.13.47,5.58,5.58,0,0,1-1.33.15,4.33,4.33,0,0,1-3.29-1.31,5,5,0,0,1-1.24-3.52,5.09,5.09,0,0,1,1.2-3.52,4.16,4.16,0,0,1,3.22-1.32,4.09,4.09,0,0,1,3.19,1.28,5.08,5.08,0,0,1,1.17,3.55Zm-2.17-1.73a2,2,0,0,0-2.14-1.7,2.13,2.13,0,0,0-.72.12,2.08,2.08,0,0,0-.62.34,2.38,2.38,0,0,0-.47.53,2.53,2.53,0,0,0-.3.71Z"/><path class="cls-9" d="M238.43,102h2.12v.82a4,4,0,0,1,1-.84,2.34,2.34,0,0,1,1.09-.23,3.44,3.44,0,0,1,1.75.54l-1,1.94a2,2,0,0,0-1.17-.43c-1.16,0-1.73.87-1.73,2.61v4.75h-2.12Z"/><path class="cls-9" d="M246.64,102,249,107.1l2.36-5.14h2.38L249,111.75,244.27,102Z"/><path class="cls-9" d="M253.89,98.15a1.38,1.38,0,0,1,2.76,0,1.34,1.34,0,0,1-.41,1,1.28,1.28,0,0,1-1,.4,1.32,1.32,0,0,1-1-.4A1.35,1.35,0,0,1,253.89,98.15Zm2.44,3.81v9.16h-2.12V102Z"/><path class="cls-9" d="M265.17,102.35v2.82a5.19,5.19,0,0,0-1.29-1.22,2.76,2.76,0,0,0-3.31.5,2.93,2.93,0,0,0-.79,2.1,3,3,0,0,0,.76,2.12,2.56,2.56,0,0,0,2,.82,2.7,2.7,0,0,0,1.35-.33,5.13,5.13,0,0,0,1.32-1.24v2.8a5.55,5.55,0,0,1-2.57.66A4.93,4.93,0,0,1,259,110a4.6,4.6,0,0,1-1.43-3.43,4.66,4.66,0,0,1,1.45-3.46,4.91,4.91,0,0,1,3.56-1.41A5.3,5.3,0,0,1,265.17,102.35Z"/><path class="cls-9" d="M274.6,107H268a2.74,2.74,0,0,0,.73,1.79,2.24,2.24,0,0,0,1.67.66,2.15,2.15,0,0,0,1.3-.37,5.28,5.28,0,0,0,1.16-1.4l1.79,1a7.41,7.41,0,0,1-.88,1.21,4.75,4.75,0,0,1-1,.83,4.36,4.36,0,0,1-1.14.47,5.58,5.58,0,0,1-1.33.15,4.33,4.33,0,0,1-3.29-1.31,5,5,0,0,1-1.24-3.52A5.09,5.09,0,0,1,267,103a4.16,4.16,0,0,1,3.22-1.32,4.12,4.12,0,0,1,3.2,1.28,5.13,5.13,0,0,1,1.16,3.55Zm-2.17-1.73a2,2,0,0,0-2.13-1.7,2.19,2.19,0,0,0-.73.12,2,2,0,0,0-.61.34,2.2,2.2,0,0,0-.48.53,2.53,2.53,0,0,0-.3.71Z"/><path class="cls-9" d="M287.69,95.24h2.12v15.88h-2.12v-1a4.08,4.08,0,0,1-6-.15,5.1,5.1,0,0,1-1.23-3.5,4.92,4.92,0,0,1,1.23-3.42,3.94,3.94,0,0,1,3.08-1.38,3.9,3.9,0,0,1,2.88,1.31Zm-5,11.27a3.22,3.22,0,0,0,.71,2.15,2.32,2.32,0,0,0,1.82.83,2.41,2.41,0,0,0,1.9-.81,3.07,3.07,0,0,0,.73-2.12,3.11,3.11,0,0,0-.73-2.13,2.41,2.41,0,0,0-1.88-.82,2.34,2.34,0,0,0-1.82.83A3.08,3.08,0,0,0,282.66,106.51Z"/><path class="cls-9" d="M293.63,102v5.26c0,1.51.6,2.27,1.8,2.27s1.8-.76,1.8-2.27V102h2.11v5.3a5.92,5.92,0,0,1-.27,1.9,3.22,3.22,0,0,1-.91,1.29,4.46,4.46,0,0,1-5.45,0,3.18,3.18,0,0,1-.93-1.29,5.36,5.36,0,0,1-.26-1.9V102Z"/><path class="cls-9" d="M306,102h2.12v.85a4.19,4.19,0,0,1,1-.87,2.5,2.5,0,0,1,1.16-.23,2.81,2.81,0,0,1,2.45,1.35,3.19,3.19,0,0,1,2.7-1.35q3.09,0,3.09,3.75v5.66h-2.12V106a3.94,3.94,0,0,0-.32-1.86,1.16,1.16,0,0,0-1.08-.56,1.4,1.4,0,0,0-1.28.66,4.34,4.34,0,0,0-.4,2.12v4.73h-2.12v-5.06c0-1.63-.47-2.45-1.41-2.45a1.41,1.41,0,0,0-1.3.67,4.11,4.11,0,0,0-.41,2.11v4.73H306Z"/><path class="cls-9" d="M320,98.15a1.38,1.38,0,0,1,2.76,0,1.34,1.34,0,0,1-.41,1,1.28,1.28,0,0,1-1,.4,1.31,1.31,0,0,1-1-.4A1.35,1.35,0,0,1,320,98.15Zm2.44,3.81v9.16H320.3V102Z"/><path class="cls-9" d="M324.14,102h2.12v.85a3.44,3.44,0,0,1,2.5-1.1,3.14,3.14,0,0,1,2.49,1,4.09,4.09,0,0,1,.78,2.8v5.61H329.9V106a3.37,3.37,0,0,0-.38-1.87,1.51,1.51,0,0,0-1.33-.53,1.66,1.66,0,0,0-1.5.7,4.91,4.91,0,0,0-.43,2.4v4.41h-2.12Z"/><path class="cls-9" d="M333.41,98.15a1.38,1.38,0,0,1,2.76,0,1.34,1.34,0,0,1-.41,1,1.28,1.28,0,0,1-1,.4,1.32,1.32,0,0,1-1-.4A1.35,1.35,0,0,1,333.41,98.15Zm2.44,3.81v9.16h-2.12V102Z"/><path class="cls-9" d="M342.89,103.52l-1.75.93c-.28-.56-.62-.84-1-.84a.68.68,0,0,0-.49.2.64.64,0,0,0-.21.49c0,.35.41.7,1.22,1a7.45,7.45,0,0,1,2.27,1.34,2.25,2.25,0,0,1,.58,1.64,2.87,2.87,0,0,1-1,2.22,3.51,3.51,0,0,1-5.55-1.41l1.8-.83a3.62,3.62,0,0,0,.57.83,1.32,1.32,0,0,0,.93.36c.71,0,1.07-.32,1.07-1,0-.37-.28-.72-.83-1.05l-.64-.31-.65-.31a4.14,4.14,0,0,1-1.3-.9,2.23,2.23,0,0,1-.47-1.48,2.62,2.62,0,0,1,.81-2,2.88,2.88,0,0,1,2-.78A2.77,2.77,0,0,1,342.89,103.52Z"/><path class="cls-9" d="M346.6,103.93v7.19h-2.12v-7.19h-.9v-2h.9V98.6h2.12V102h1.65v2Z"/><path class="cls-9" d="M357.06,107H350.5a2.74,2.74,0,0,0,.73,1.79,2.24,2.24,0,0,0,1.67.66,2.15,2.15,0,0,0,1.3-.37,5.28,5.28,0,0,0,1.16-1.4l1.79,1a7.41,7.41,0,0,1-.88,1.21,4.75,4.75,0,0,1-1,.83,4.36,4.36,0,0,1-1.14.47,5.58,5.58,0,0,1-1.33.15,4.33,4.33,0,0,1-3.29-1.31,5,5,0,0,1-1.24-3.52,5.09,5.09,0,0,1,1.2-3.52,4.16,4.16,0,0,1,3.22-1.32,4.12,4.12,0,0,1,3.2,1.28,5.13,5.13,0,0,1,1.16,3.55Zm-7.36-9.59,2-1,2.6,3.42-1.17.72Zm5.19,7.86a2,2,0,0,0-2.13-1.7,2.19,2.19,0,0,0-.73.12,2,2,0,0,0-.61.34,2.2,2.2,0,0,0-.48.53,2.53,2.53,0,0,0-.3.71Z"/><path class="cls-9" d="M358.41,102h2.12v.82a4,4,0,0,1,1-.84,2.34,2.34,0,0,1,1.09-.23,3.42,3.42,0,0,1,1.75.54l-1,1.94a2,2,0,0,0-1.17-.43c-1.15,0-1.73.87-1.73,2.61v4.75h-2.12Z"/><path class="cls-9" d="M372.86,107H366.3a2.79,2.79,0,0,0,.73,1.79,2.25,2.25,0,0,0,1.67.66,2.15,2.15,0,0,0,1.3-.37,5.28,5.28,0,0,0,1.16-1.4l1.79,1a7.41,7.41,0,0,1-.88,1.21,4.75,4.75,0,0,1-1,.83,4.09,4.09,0,0,1-1.14.47,5.58,5.58,0,0,1-1.33.15,4.35,4.35,0,0,1-3.29-1.31,5,5,0,0,1-1.24-3.52,5.09,5.09,0,0,1,1.2-3.52,4.16,4.16,0,0,1,3.22-1.32,4.12,4.12,0,0,1,3.2,1.28,5.13,5.13,0,0,1,1.16,3.55Zm-2.17-1.73a2,2,0,0,0-2.13-1.7,2.19,2.19,0,0,0-.73.12,2,2,0,0,0-.61.34,2.2,2.2,0,0,0-.48.53,2.53,2.53,0,0,0-.3.71Z"/><path class="cls-9" d="M386.32,102.35v2.82A5,5,0,0,0,385,104a2.54,2.54,0,0,0-1.32-.34,2.62,2.62,0,0,0-2,.84,3,3,0,0,0-.79,2.1,3,3,0,0,0,.77,2.12,2.56,2.56,0,0,0,2,.82,2.7,2.7,0,0,0,1.35-.33,5.29,5.29,0,0,0,1.32-1.24v2.8a5.61,5.61,0,0,1-2.57.66,4.91,4.91,0,0,1-3.56-1.37,4.84,4.84,0,0,1,0-6.89,4.9,4.9,0,0,1,3.55-1.41A5.31,5.31,0,0,1,386.32,102.35Z"/><path class="cls-9" d="M387.91,95.24H390v7.48a3.65,3.65,0,0,1,2.5-1,3.22,3.22,0,0,1,2.48,1,4.11,4.11,0,0,1,.79,2.8v5.61h-2.12V105.7a2.58,2.58,0,0,0-.39-1.59,1.5,1.5,0,0,0-1.25-.5,1.72,1.72,0,0,0-1.56.69,4.65,4.65,0,0,0-.45,2.39v4.43h-2.11Z"/><path class="cls-9" d="M404.26,102h2.12v9.16h-2.12v-1a4.08,4.08,0,0,1-6-.15,5.1,5.1,0,0,1-1.23-3.5,4.94,4.94,0,0,1,1.23-3.43,4,4,0,0,1,3.09-1.37,3.88,3.88,0,0,1,2.87,1.31Zm-5,4.55a3.22,3.22,0,0,0,.7,2.15,2.33,2.33,0,0,0,1.83.83,2.44,2.44,0,0,0,1.9-.81,3.11,3.11,0,0,0,.72-2.12,3.16,3.16,0,0,0-.72-2.13,2.43,2.43,0,0,0-1.89-.82,2.35,2.35,0,0,0-1.82.83A3.07,3.07,0,0,0,399.24,106.51Z"/><path class="cls-9" d="M408.09,102h2.12v.82a4,4,0,0,1,1-.84,2.34,2.34,0,0,1,1.09-.23,3.44,3.44,0,0,1,1.75.54l-1,1.94a2,2,0,0,0-1.17-.43c-1.16,0-1.73.87-1.73,2.61v4.75h-2.12Z"/><path class="cls-9" d="M423.19,110.9c0,.44,0,.82,0,1.15a8.73,8.73,0,0,1-.12.87,4,4,0,0,1-.88,1.77,4.28,4.28,0,0,1-3.42,1.43,4.56,4.56,0,0,1-3-1,4.09,4.09,0,0,1-1.41-2.82h2.13a2.43,2.43,0,0,0,.4,1,2.27,2.27,0,0,0,1.92.85c1.55,0,2.32-.94,2.32-2.84v-1.28a4,4,0,0,1-6-.06,5,5,0,0,1-1.2-3.43,5.28,5.28,0,0,1,1.12-3.41,3.88,3.88,0,0,1,3.18-1.48,3.66,3.66,0,0,1,2.87,1.28v-1h2.12Zm-2-4.34a3.05,3.05,0,0,0-.72-2.13,2.38,2.38,0,0,0-1.85-.82,2.28,2.28,0,0,0-1.9.9,3.67,3.67,0,0,0,0,4.11,2.29,2.29,0,0,0,1.9.87,2.32,2.32,0,0,0,1.92-.88A3.15,3.15,0,0,0,421.16,106.56Z"/><path class="cls-9" d="M433.24,107h-6.56a2.74,2.74,0,0,0,.73,1.79,2.23,2.23,0,0,0,1.66.66,2.16,2.16,0,0,0,1.31-.37,5.47,5.47,0,0,0,1.16-1.4l1.78,1a6.84,6.84,0,0,1-.87,1.21,5.08,5.08,0,0,1-1,.83,4.09,4.09,0,0,1-1.14.47,5.5,5.5,0,0,1-1.32.15,4.32,4.32,0,0,1-3.29-1.31,5,5,0,0,1-1.24-3.52,5.09,5.09,0,0,1,1.2-3.52,4.16,4.16,0,0,1,3.21-1.32,4.1,4.1,0,0,1,3.2,1.28,5.08,5.08,0,0,1,1.17,3.55Zm-2.17-1.73a2,2,0,0,0-2.14-1.7,2.13,2.13,0,0,0-.72.12,2.08,2.08,0,0,0-.62.34,2.38,2.38,0,0,0-.47.53,2.27,2.27,0,0,0-.3.71Zm1-7.86-3.42,3.1-1.16-.72,2.59-3.42Z"/><path class="cls-9" d="M446.32,95.24h2.13v15.88h-2.13v-1a4,4,0,0,1-2.83,1.22,4,4,0,0,1-3.12-1.37,5.1,5.1,0,0,1-1.23-3.5,4.92,4.92,0,0,1,1.23-3.42,3.92,3.92,0,0,1,3.07-1.38,3.87,3.87,0,0,1,2.88,1.31Zm-5,11.27a3.22,3.22,0,0,0,.71,2.15,2.32,2.32,0,0,0,1.82.83,2.43,2.43,0,0,0,1.9-.81,3.11,3.11,0,0,0,.72-2.12,3.16,3.16,0,0,0-.72-2.13,2.41,2.41,0,0,0-1.88-.82,2.36,2.36,0,0,0-1.83.83A3.07,3.07,0,0,0,441.3,106.51Z"/><path class="cls-9" d="M458.5,107h-6.57a2.74,2.74,0,0,0,.74,1.79,2.21,2.21,0,0,0,1.66.66,2.18,2.18,0,0,0,1.31-.37,5.47,5.47,0,0,0,1.16-1.4l1.78,1a7.39,7.39,0,0,1-.87,1.21,5.08,5.08,0,0,1-1,.83,4.09,4.09,0,0,1-1.14.47,5.56,5.56,0,0,1-1.32.15,4.32,4.32,0,0,1-3.29-1.31,5,5,0,0,1-1.25-3.52,5.05,5.05,0,0,1,1.21-3.52,4.16,4.16,0,0,1,3.21-1.32,4.1,4.1,0,0,1,3.2,1.28,5.08,5.08,0,0,1,1.17,3.55Zm-2.17-1.73a2,2,0,0,0-2.14-1.7,2.15,2.15,0,0,0-1.34.46,2.38,2.38,0,0,0-.47.53,2.28,2.28,0,0,0-.31.71Z"/><path class="cls-9" d="M466.94,95.24v15.88h-2.11V95.24Z"/><path class="cls-9" d="M475.41,102h2.13v9.16h-2.13v-1a4.08,4.08,0,0,1-2.81,1.22,4,4,0,0,1-3.14-1.37,5.1,5.1,0,0,1-1.23-3.5,4.94,4.94,0,0,1,1.23-3.43,4,4,0,0,1,3.08-1.37,3.87,3.87,0,0,1,2.87,1.31Zm-5,4.55a3.22,3.22,0,0,0,.71,2.15,2.32,2.32,0,0,0,1.82.83,2.43,2.43,0,0,0,1.9-.81,3.11,3.11,0,0,0,.72-2.12,3.16,3.16,0,0,0-.72-2.13,2.41,2.41,0,0,0-1.88-.82,2.32,2.32,0,0,0-1.82.83A3,3,0,0,0,470.39,106.51Z"/><path class="cls-9" d="M492.84,98.75l-1.78,1.06a3,3,0,0,0-.95-1.13,2.21,2.21,0,0,0-1.21-.3,2.24,2.24,0,0,0-1.51.51,1.59,1.59,0,0,0-.61,1.28c0,.71.53,1.28,1.58,1.72l1.45.59a6.23,6.23,0,0,1,2.59,1.75,4,4,0,0,1,.82,2.52,4.47,4.47,0,0,1-1.34,3.32,4.62,4.62,0,0,1-3.34,1.31,4.44,4.44,0,0,1-3.12-1.12,5.16,5.16,0,0,1-1.51-3.16l2.22-.49a3.75,3.75,0,0,0,.52,1.77,2.28,2.28,0,0,0,2,.94,2.31,2.31,0,0,0,1.7-.68,2.39,2.39,0,0,0,.68-1.74,2.45,2.45,0,0,0-.12-.78,2,2,0,0,0-.37-.65,3,3,0,0,0-.64-.55,6.31,6.31,0,0,0-.94-.49l-1.4-.59q-3-1.25-3-3.68a3.47,3.47,0,0,1,1.26-2.73,4.51,4.51,0,0,1,3.11-1.11A4.35,4.35,0,0,1,492.84,98.75Z"/><path class="cls-9" d="M501.24,102h2.13v9.16h-2.13v-1a4.07,4.07,0,0,1-5.95-.15,5.1,5.1,0,0,1-1.23-3.5,4.94,4.94,0,0,1,1.23-3.43,4,4,0,0,1,3.09-1.37,3.86,3.86,0,0,1,2.86,1.31Zm-5,4.55a3.22,3.22,0,0,0,.71,2.15,2.32,2.32,0,0,0,1.82.83,2.41,2.41,0,0,0,1.9-.81,3.12,3.12,0,0,0,.73-2.12,3.16,3.16,0,0,0-.73-2.13,2.41,2.41,0,0,0-1.88-.82,2.34,2.34,0,0,0-1.82.83A3,3,0,0,0,496.22,106.51Z"/><path class="cls-9" d="M505.08,102h2.12v.85a3.45,3.45,0,0,1,2.5-1.1,3.18,3.18,0,0,1,2.5,1,4.15,4.15,0,0,1,.77,2.8v5.61h-2.13V106a3.38,3.38,0,0,0-.37-1.87,1.53,1.53,0,0,0-1.34-.53,1.66,1.66,0,0,0-1.5.7,4.91,4.91,0,0,0-.43,2.4v4.41h-2.12Z"/><path class="cls-9" d="M516.86,103.93v7.19h-2.12v-7.19h-.9v-2h.9V98.6h2.12V102h1.64v2Z"/><path class="cls-9" d="M527.49,107h-6.57a2.79,2.79,0,0,0,.74,1.79,2.23,2.23,0,0,0,1.66.66,2.18,2.18,0,0,0,1.31-.37,5.47,5.47,0,0,0,1.16-1.4l1.78,1a6.84,6.84,0,0,1-.87,1.21,5.08,5.08,0,0,1-1,.83,4.09,4.09,0,0,1-1.14.47,5.5,5.5,0,0,1-1.32.15,4.32,4.32,0,0,1-3.29-1.31,5,5,0,0,1-1.25-3.52,5.1,5.1,0,0,1,1.21-3.52,4.16,4.16,0,0,1,3.21-1.32,4.1,4.1,0,0,1,3.2,1.28,5.08,5.08,0,0,1,1.17,3.55Zm-2.17-1.73a2,2,0,0,0-2.14-1.7,2.15,2.15,0,0,0-1.34.46,2.38,2.38,0,0,0-.47.53,2.06,2.06,0,0,0-.3.71Zm1-7.86-3.42,3.1-1.16-.72,2.59-3.42Z"/></svg>